<svg width="17" height="23" viewBox="0 0 17 23" fill="none" xmlns="http://www.w3.org/2000/svg">
<path d="M8.42083 0C4.0188 0 0.4375 3.68254 0.4375 8.20897C0.4375 13.8264 7.5818 22.0732 7.88598 22.4215C8.17168 22.7487 8.6705 22.7481 8.95569 22.4215C9.25987 22.0732 16.4042 13.8264 16.4042 8.20897C16.4041 3.68254 12.8228 0 8.42083 0ZM8.42083 12.3391C6.20606 12.3391 4.40426 10.4864 4.40426 8.20897C4.40426 5.93159 6.2061 4.07885 8.42083 4.07885C10.6356 4.07885 12.4374 5.93163 12.4374 8.20902C12.4374 10.4864 10.6356 12.3391 8.42083 12.3391Z" fill="white"/>
</svg>
