<svg width="21" height="22" viewBox="0 0 21 22" fill="none" xmlns="http://www.w3.org/2000/svg">
<path d="M13.9113 12.3136C13.6861 12.0791 13.4145 11.9537 13.1266 11.9537C12.841 11.9537 12.5671 12.0768 12.3326 12.3113L11.599 13.0426C11.5386 13.0101 11.4782 12.9799 11.4202 12.9497C11.3366 12.9079 11.2577 12.8685 11.1904 12.8267C10.5032 12.3902 9.87863 11.8214 9.27965 11.0854C8.98945 10.7186 8.79444 10.4099 8.65282 10.0964C8.84319 9.92231 9.01963 9.74123 9.19143 9.56711C9.25644 9.5021 9.32144 9.43477 9.38645 9.36977C9.87399 8.88223 9.87399 8.25074 9.38645 7.7632L8.75265 7.1294C8.68068 7.05743 8.60638 6.98314 8.53673 6.90884C8.39744 6.7649 8.25117 6.61632 8.10027 6.47702C7.87507 6.25415 7.60576 6.13574 7.32252 6.13574C7.03929 6.13574 6.76533 6.25415 6.53317 6.47702C6.53085 6.47934 6.53085 6.47934 6.52853 6.48166L5.73918 7.27798C5.44201 7.57515 5.27253 7.93732 5.23538 8.35754C5.17966 9.03545 5.37932 9.66694 5.53255 10.0802C5.90865 11.0947 6.47049 12.035 7.30859 13.0426C8.32547 14.2568 9.54896 15.2156 10.9466 15.8912C11.4806 16.1443 12.1933 16.4438 12.9896 16.4948C13.0384 16.4972 13.0894 16.4995 13.1359 16.4995C13.6722 16.4995 14.1226 16.3068 14.4755 15.9237C14.4778 15.9191 14.4824 15.9168 14.4847 15.9121C14.6055 15.7658 14.7448 15.6335 14.891 15.4919C14.9909 15.3967 15.093 15.2969 15.1928 15.1924C15.4227 14.9533 15.5434 14.6747 15.5434 14.3891C15.5434 14.1012 15.4204 13.825 15.1859 13.5928L13.9113 12.3136ZM14.7424 14.7583C14.7401 14.7583 14.7401 14.7606 14.7424 14.7583C14.6519 14.8558 14.559 14.944 14.4592 15.0415C14.3083 15.1854 14.1551 15.3363 14.0111 15.5058C13.7766 15.7566 13.5004 15.875 13.1382 15.875C13.1034 15.875 13.0662 15.875 13.0314 15.8726C12.3419 15.8285 11.7011 15.5592 11.2205 15.3294C9.90649 14.6933 8.75265 13.7901 7.79381 12.6456C7.00214 11.6914 6.47281 10.8092 6.12224 9.86195C5.90633 9.28387 5.8274 8.83347 5.86222 8.40861C5.88544 8.13698 5.98991 7.91179 6.18261 7.71909L6.97428 6.92742C7.08804 6.82062 7.20877 6.76258 7.32717 6.76258C7.47343 6.76258 7.59183 6.8508 7.66613 6.9251C7.66845 6.92742 7.67077 6.92974 7.67309 6.93206C7.81471 7.06439 7.94936 7.20137 8.09098 7.34763C8.16295 7.42192 8.23724 7.49622 8.31154 7.57283L8.94534 8.20663C9.19143 8.45273 9.19143 8.68024 8.94534 8.92634C8.87801 8.99366 8.81301 9.06099 8.74568 9.126C8.55066 9.32566 8.36493 9.51139 8.16295 9.69247C8.15831 9.69712 8.15367 9.69944 8.15134 9.70408C7.95169 9.90374 7.98883 10.0988 8.03062 10.2311C8.03294 10.2381 8.03526 10.245 8.03759 10.252C8.20242 10.6513 8.43458 11.0274 8.78747 11.4755L8.78979 11.4778C9.43056 12.2672 10.1062 12.8824 10.8514 13.3537C10.9466 13.414 11.0441 13.4628 11.137 13.5092C11.2205 13.551 11.2995 13.5905 11.3668 13.6323C11.3761 13.6369 11.3854 13.6439 11.3947 13.6485C11.4736 13.688 11.5479 13.7066 11.6245 13.7066C11.8172 13.7066 11.9379 13.5858 11.9774 13.5464L12.7714 12.7524C12.8503 12.6734 12.9757 12.5783 13.1219 12.5783C13.2659 12.5783 13.3843 12.6688 13.4563 12.7477C13.4586 12.7501 13.4586 12.7501 13.4609 12.7524L14.7401 14.0316C14.9792 14.2684 14.9792 14.5122 14.7424 14.7583Z" stroke="url(#paint0_linear_42:17)" stroke-width="0.73913"/>
<path d="M11.1628 8.11589C11.771 8.21804 12.3236 8.50592 12.7647 8.94703C13.2058 9.38814 13.4914 9.94069 13.5958 10.549C13.6214 10.7022 13.7537 10.809 13.9046 10.809C13.9232 10.809 13.9394 10.8067 13.958 10.8043C14.1298 10.7765 14.2436 10.614 14.2157 10.4422C14.0903 9.7062 13.7421 9.03525 13.2104 8.5036C12.6788 7.97195 12.0078 7.6237 11.2719 7.49834C11.1001 7.47048 10.9399 7.58424 10.9097 7.75372C10.8795 7.92319 10.991 8.08803 11.1628 8.11589Z" fill="url(#paint1_linear_42:17)" stroke="url(#paint2_linear_42:17)" stroke-width="0.73913"/>
<path d="M16.205 10.3523C15.9984 9.14044 15.4273 8.03767 14.5497 7.1601C13.6721 6.28252 12.5693 5.7114 11.3575 5.50478C11.188 5.4746 11.0278 5.59068 10.9976 5.76016C10.9697 5.93196 11.0835 6.09215 11.2553 6.12233C12.3372 6.30574 13.3239 6.81882 14.1086 7.60121C14.8933 8.38592 15.404 9.37261 15.5875 10.4545C15.613 10.6077 15.7453 10.7145 15.8962 10.7145C15.9148 10.7145 15.9311 10.7122 15.9496 10.7099C16.1191 10.6843 16.2352 10.5218 16.205 10.3523Z" fill="url(#paint3_linear_42:17)" stroke="url(#paint4_linear_42:17)" stroke-width="0.73913"/>
<circle opacity="0.8" cx="10.3478" cy="11.0002" r="9.6087" stroke="#F8B043" stroke-width="1.47826"/>
<defs>
<linearGradient id="paint0_linear_42:17" x1="5.22583" y1="6.13574" x2="15.5136" y2="16.3777" gradientUnits="userSpaceOnUse">
<stop stop-color="#FCBA2C"/>
<stop offset="1" stop-color="#FFCC63"/>
</linearGradient>
<linearGradient id="paint1_linear_42:17" x1="12.5623" y1="7.49414" x2="12.5623" y2="10.809" gradientUnits="userSpaceOnUse">
<stop stop-color="#3A79BC"/>
<stop offset="1" stop-color="#53C2E9"/>
</linearGradient>
<linearGradient id="paint2_linear_42:17" x1="10.9048" y1="7.49414" x2="14.1953" y2="10.785" gradientUnits="userSpaceOnUse">
<stop stop-color="#FCBA2C"/>
<stop offset="1" stop-color="#FFCC63"/>
</linearGradient>
<linearGradient id="paint3_linear_42:17" x1="13.6016" y1="5.5" x2="13.6016" y2="10.7145" gradientUnits="userSpaceOnUse">
<stop stop-color="#3A79BC"/>
<stop offset="1" stop-color="#53C2E9"/>
</linearGradient>
<linearGradient id="paint4_linear_42:17" x1="10.9934" y1="5.5" x2="16.1697" y2="10.6782" gradientUnits="userSpaceOnUse">
<stop stop-color="#FCBA2C"/>
<stop offset="1" stop-color="#FFCC63"/>
</linearGradient>
</defs>
</svg>
