<svg width="20" height="19" viewBox="0 0 20 19" fill="none" xmlns="http://www.w3.org/2000/svg">
<g clip-path="url(#clip0_2:65)">
<path d="M8.69086 11.1324C6.88112 9.31892 6.47249 7.5054 6.3803 6.77881C6.35454 6.57791 6.42353 6.37643 6.56696 6.23371L8.03149 4.76678C8.24693 4.55103 8.28516 4.21479 8.12368 3.956L5.79188 0.327658C5.61323 0.0411016 5.24642 -0.0623195 4.94487 0.0888477L1.20149 1.85552C0.957642 1.97584 0.814213 2.23547 0.841899 2.50643C1.03804 4.37367 1.8504 8.96381 6.35186 13.475C10.8533 17.9862 15.4332 18.7999 17.2976 18.9965C17.568 19.0242 17.8271 18.8805 17.9471 18.6361L19.7101 14.8849C19.8604 14.5834 19.7579 14.2168 19.4731 14.0375L15.8523 11.7014C15.5942 11.5395 15.2587 11.5775 15.0433 11.7932L13.5794 13.2608C13.4369 13.4045 13.2359 13.4736 13.0354 13.4478C12.3103 13.3554 10.5006 12.9459 8.69086 11.1324Z" fill="white"/>
<path d="M15.8772 10.1547C15.5161 10.1547 15.2234 9.86137 15.2234 9.49953C15.2203 6.78699 13.0267 4.5888 10.3198 4.58574C9.95874 4.58574 9.66602 4.2924 9.66602 3.93056C9.66602 3.56872 9.95874 3.27539 10.3198 3.27539C13.7486 3.27918 16.5272 6.0636 16.531 9.49953C16.531 9.86137 16.2383 10.1547 15.8772 10.1547Z" fill="white"/>
<path d="M19.1462 10.1552C18.7851 10.1552 18.4924 9.86184 18.4924 9.5C18.4874 4.97907 14.8313 1.3154 10.3198 1.31034C9.95874 1.31034 9.66602 1.01701 9.66602 0.655172C9.66602 0.293331 9.95874 0 10.3198 0C15.5532 0.00577727 19.7943 4.25569 19.8 9.5C19.8 9.67376 19.7312 9.84041 19.6085 9.96328C19.4859 10.0861 19.3196 10.1552 19.1462 10.1552Z" fill="white"/>
</g>
<defs>
<clipPath id="clip0_2:65">
<rect width="18.9604" height="19" fill="white" transform="translate(0.8396)"/>
</clipPath>
</defs>
</svg>
