<svg width="113" height="126" viewBox="0 0 113 126" fill="none" xmlns="http://www.w3.org/2000/svg">
<rect x="0.0502525" y="70" width="80" height="80" rx="10.5" transform="rotate(-45 0.0502525 70)" stroke="#F8B043" stroke-width="7"/>
<path d="M101.331 107.546V114.676H10.9635V99.4116H101.331" stroke="#ADACAC" stroke-width="2.63" stroke-miterlimit="10" stroke-linecap="square"/>
<path d="M101.331 107.546V114.676H10.9635V99.4116H101.331" stroke="url(#paint0_linear_2:105)" stroke-width="2.63" stroke-miterlimit="10" stroke-linecap="square"/>
<path d="M101.331 107.546V114.676H10.9635V99.4116H101.331" stroke="#181818" stroke-width="2.63" stroke-miterlimit="10" stroke-linecap="square"/>
<path d="M65.6254 56.5464L66.3609 59.6682" stroke="#ADACAC" stroke-width="2.63" stroke-miterlimit="10" stroke-linecap="square"/>
<path d="M65.6254 56.5464L66.3609 59.6682" stroke="url(#paint1_linear_2:105)" stroke-width="2.63" stroke-miterlimit="10" stroke-linecap="square"/>
<path d="M65.6254 56.5464L66.3609 59.6682" stroke="#181818" stroke-width="2.63" stroke-miterlimit="10" stroke-linecap="square"/>
<path d="M45.9352 59.6683L47.391 51.1133" stroke="#ADACAC" stroke-width="2.63" stroke-miterlimit="10" stroke-linecap="square"/>
<path d="M45.9352 59.6683L47.391 51.1133" stroke="url(#paint2_linear_2:105)" stroke-width="2.63" stroke-miterlimit="10" stroke-linecap="square"/>
<path d="M45.9352 59.6683L47.391 51.1133" stroke="#181818" stroke-width="2.63" stroke-miterlimit="10" stroke-linecap="square"/>
<path d="M73.6709 25.5386C73.6709 39.7219 65.8213 53.1247 56.1556 53.1247C46.49 53.1247 38.6404 39.6618 38.6404 25.5386" stroke="#ADACAC" stroke-width="2.63" stroke-miterlimit="10" stroke-linecap="square"/>
<path d="M73.6709 25.5386C73.6709 39.7219 65.8213 53.1247 56.1556 53.1247C46.49 53.1247 38.6404 39.6618 38.6404 25.5386" stroke="url(#paint3_linear_2:105)" stroke-width="2.63" stroke-miterlimit="10" stroke-linecap="square"/>
<path d="M73.6709 25.5386C73.6709 39.7219 65.8213 53.1247 56.1556 53.1247C46.49 53.1247 38.6404 39.6618 38.6404 25.5386" stroke="#181818" stroke-width="2.63" stroke-miterlimit="10" stroke-linecap="square"/>
<path d="M74.2261 22.3866C74.2261 22.3866 77.6631 13.7266 73.6707 8.72863C69.6784 3.7307 56.9359 -1.23721 44.3886 4.72128C31.0758 11.04 37.5896 22.5367 37.5896 22.5367C55.7202 27.7748 60.8983 16.7733 66.2264 18.5294" stroke="#ADACAC" stroke-width="2.63" stroke-miterlimit="10" stroke-linecap="square"/>
<path d="M74.2261 22.3866C74.2261 22.3866 77.6631 13.7266 73.6707 8.72863C69.6784 3.7307 56.9359 -1.23721 44.3886 4.72128C31.0758 11.04 37.5896 22.5367 37.5896 22.5367C55.7202 27.7748 60.8983 16.7733 66.2264 18.5294" stroke="url(#paint4_linear_2:105)" stroke-width="2.63" stroke-miterlimit="10" stroke-linecap="square"/>
<path d="M74.2261 22.3866C74.2261 22.3866 77.6631 13.7266 73.6707 8.72863C69.6784 3.7307 56.9359 -1.23721 44.3886 4.72128C31.0758 11.04 37.5896 22.5367 37.5896 22.5367C55.7202 27.7748 60.8983 16.7733 66.2264 18.5294" stroke="#181818" stroke-width="2.63" stroke-miterlimit="10" stroke-linecap="square"/>
<path d="M36.7936 61.8447L56.1549 85.8888L75.5013 61.8447" stroke="#ADACAC" stroke-width="2.63" stroke-miterlimit="10" stroke-linecap="round"/>
<path d="M36.7936 61.8447L56.1549 85.8888L75.5013 61.8447" stroke="url(#paint5_linear_2:105)" stroke-width="2.63" stroke-miterlimit="10" stroke-linecap="round"/>
<path d="M36.7936 61.8447L56.1549 85.8888L75.5013 61.8447" stroke="#181818" stroke-width="2.63" stroke-miterlimit="10" stroke-linecap="round"/>
<path d="M96.9641 99.4117H15.3313V83.3073C15.3313 80.4888 15.8864 77.6979 16.965 75.0939C18.0436 72.49 19.6246 70.124 21.6175 68.131C25.6426 64.106 31.1016 61.8447 36.7939 61.8447H75.5616C81.2538 61.8447 86.7129 64.106 90.7379 68.131C94.7629 72.156 97.0242 77.6151 97.0242 83.3073V89.8361" stroke="#ADACAC" stroke-width="2.63" stroke-miterlimit="10" stroke-linecap="square"/>
<path d="M96.9641 99.4117H15.3313V83.3073C15.3313 80.4888 15.8864 77.6979 16.965 75.0939C18.0436 72.49 19.6246 70.124 21.6175 68.131C25.6426 64.106 31.1016 61.8447 36.7939 61.8447H75.5616C81.2538 61.8447 86.7129 64.106 90.7379 68.131C94.7629 72.156 97.0242 77.6151 97.0242 83.3073V89.8361" stroke="url(#paint6_linear_2:105)" stroke-width="2.63" stroke-miterlimit="10" stroke-linecap="square"/>
<path d="M96.9641 99.4117H15.3313V83.3073C15.3313 80.4888 15.8864 77.6979 16.965 75.0939C18.0436 72.49 19.6246 70.124 21.6175 68.131C25.6426 64.106 31.1016 61.8447 36.7939 61.8447H75.5616C81.2538 61.8447 86.7129 64.106 90.7379 68.131C94.7629 72.156 97.0242 77.6151 97.0242 83.3073V89.8361" stroke="#181818" stroke-width="2.63" stroke-miterlimit="10" stroke-linecap="square"/>
<path d="M59.3824 69.0339L61.0184 61.8447H51.2776L52.6585 69.0339" stroke="#ADACAC" stroke-width="2.63" stroke-linecap="square" stroke-linejoin="round"/>
<path d="M59.3824 69.0339L61.0184 61.8447H51.2776L52.6585 69.0339" stroke="url(#paint7_linear_2:105)" stroke-width="2.63" stroke-linecap="square" stroke-linejoin="round"/>
<path d="M59.3824 69.0339L61.0184 61.8447H51.2776L52.6585 69.0339" stroke="#181818" stroke-width="2.63" stroke-linecap="square" stroke-linejoin="round"/>
<path d="M61.0189 73.1762L59.8782 69.6191H52.4338L49.9424 77.5288" stroke="#ADACAC" stroke-width="2.63" stroke-miterlimit="10"/>
<path d="M61.0189 73.1762L59.8782 69.6191H52.4338L49.9424 77.5288" stroke="url(#paint8_linear_2:105)" stroke-width="2.63" stroke-miterlimit="10"/>
<path d="M61.0189 73.1762L59.8782 69.6191H52.4338L49.9424 77.5288" stroke="#181818" stroke-width="2.63" stroke-miterlimit="10"/>
<path d="M3.99994 99.4116H108.311" stroke="#ADACAC" stroke-width="2.63" stroke-miterlimit="10" stroke-linecap="square"/>
<path d="M3.99994 99.4116H108.311" stroke="url(#paint9_linear_2:105)" stroke-width="2.63" stroke-miterlimit="10" stroke-linecap="square"/>
<path d="M3.99994 99.4116H108.311" stroke="#181818" stroke-width="2.63" stroke-miterlimit="10" stroke-linecap="square"/>
<defs>
<linearGradient id="paint0_linear_2:105" x1="56.1475" y1="99.4116" x2="56.1475" y2="114.676" gradientUnits="userSpaceOnUse">
<stop stop-color="#8C00FF"/>
<stop offset="1" stop-color="#7100FF"/>
</linearGradient>
<linearGradient id="paint1_linear_2:105" x1="65.9931" y1="56.5464" x2="65.9931" y2="59.6682" gradientUnits="userSpaceOnUse">
<stop stop-color="#8C00FF"/>
<stop offset="1" stop-color="#7100FF"/>
</linearGradient>
<linearGradient id="paint2_linear_2:105" x1="46.6631" y1="51.1133" x2="46.6631" y2="59.6683" gradientUnits="userSpaceOnUse">
<stop stop-color="#8C00FF"/>
<stop offset="1" stop-color="#7100FF"/>
</linearGradient>
<linearGradient id="paint3_linear_2:105" x1="56.1556" y1="25.5386" x2="56.1556" y2="53.1247" gradientUnits="userSpaceOnUse">
<stop stop-color="#8C00FF"/>
<stop offset="1" stop-color="#7100FF"/>
</linearGradient>
<linearGradient id="paint4_linear_2:105" x1="55.7989" y1="2" x2="55.7989" y2="23.9635" gradientUnits="userSpaceOnUse">
<stop stop-color="#8C00FF"/>
<stop offset="1" stop-color="#7100FF"/>
</linearGradient>
<linearGradient id="paint5_linear_2:105" x1="56.1474" y1="61.8447" x2="56.1474" y2="85.8888" gradientUnits="userSpaceOnUse">
<stop stop-color="#8C00FF"/>
<stop offset="1" stop-color="#7100FF"/>
</linearGradient>
<linearGradient id="paint6_linear_2:105" x1="56.1777" y1="61.8447" x2="56.1777" y2="99.4117" gradientUnits="userSpaceOnUse">
<stop stop-color="#8C00FF"/>
<stop offset="1" stop-color="#7100FF"/>
</linearGradient>
<linearGradient id="paint7_linear_2:105" x1="56.148" y1="61.8447" x2="56.148" y2="69.0339" gradientUnits="userSpaceOnUse">
<stop stop-color="#8C00FF"/>
<stop offset="1" stop-color="#7100FF"/>
</linearGradient>
<linearGradient id="paint8_linear_2:105" x1="55.4806" y1="69.6191" x2="55.4806" y2="77.5288" gradientUnits="userSpaceOnUse">
<stop stop-color="#8C00FF"/>
<stop offset="1" stop-color="#7100FF"/>
</linearGradient>
<linearGradient id="paint9_linear_2:105" x1="56.1555" y1="99.4116" x2="56.1555" y2="100.412" gradientUnits="userSpaceOnUse">
<stop stop-color="#8C00FF"/>
<stop offset="1" stop-color="#7100FF"/>
</linearGradient>
</defs>
</svg>
