<svg width="113" height="125" viewBox="0 0 113 125" fill="none" xmlns="http://www.w3.org/2000/svg">
<rect x="0.0502525" y="69" width="81" height="79" rx="10.5" transform="rotate(-45 0.0502525 69)" stroke="#F8B043" stroke-width="7"/>
<path d="M56.7859 105.768H18.4473V2H93.0437V9.45485" stroke="#181818" stroke-width="2.63" stroke-miterlimit="10" stroke-linecap="square"/>
<path d="M93.0439 23.834V105.768H78.5876" stroke="#ADACAC" stroke-width="2.63" stroke-miterlimit="10" stroke-linecap="square"/>
<path d="M93.0439 23.834V105.768H78.5876" stroke="url(#paint0_linear_2:134)" stroke-width="2.63" stroke-miterlimit="10" stroke-linecap="square"/>
<path d="M93.0439 23.834V105.768H78.5876" stroke="#181818" stroke-width="2.63" stroke-miterlimit="10" stroke-linecap="square"/>
<path d="M67.1774 19.2412H77.017" stroke="#ADACAC" stroke-width="2.63" stroke-miterlimit="10" stroke-linecap="square"/>
<path d="M67.1774 19.2412H77.017" stroke="url(#paint1_linear_2:134)" stroke-width="2.63" stroke-miterlimit="10" stroke-linecap="square"/>
<path d="M67.1774 19.2412H77.017" stroke="#181818" stroke-width="2.63" stroke-miterlimit="10" stroke-linecap="square"/>
<path d="M34.462 19.2412H56.5115" stroke="#ADACAC" stroke-width="2.63" stroke-miterlimit="10" stroke-linecap="square"/>
<path d="M34.462 19.2412H56.5115" stroke="url(#paint2_linear_2:134)" stroke-width="2.63" stroke-miterlimit="10" stroke-linecap="square"/>
<path d="M34.462 19.2412H56.5115" stroke="#181818" stroke-width="2.63" stroke-miterlimit="10" stroke-linecap="square"/>
<path d="M34.462 19.2412H77.0176" stroke="#ADACAC" stroke-width="2.63" stroke-miterlimit="10" stroke-linecap="square"/>
<path d="M34.462 19.2412H77.0176" stroke="url(#paint3_linear_2:134)" stroke-width="2.63" stroke-miterlimit="10" stroke-linecap="square"/>
<path d="M34.462 19.2412H77.0176" stroke="#181818" stroke-width="2.63" stroke-miterlimit="10" stroke-linecap="square"/>
<path d="M67.1774 33.2988H77.017" stroke="#ADACAC" stroke-width="2.63" stroke-miterlimit="10" stroke-linecap="square"/>
<path d="M67.1774 33.2988H77.017" stroke="url(#paint4_linear_2:134)" stroke-width="2.63" stroke-miterlimit="10" stroke-linecap="square"/>
<path d="M67.1774 33.2988H77.017" stroke="#181818" stroke-width="2.63" stroke-miterlimit="10" stroke-linecap="square"/>
<path d="M34.462 33.2988H56.5115" stroke="#ADACAC" stroke-width="2.63" stroke-miterlimit="10" stroke-linecap="square"/>
<path d="M34.462 33.2988H56.5115" stroke="url(#paint5_linear_2:134)" stroke-width="2.63" stroke-miterlimit="10" stroke-linecap="square"/>
<path d="M34.462 33.2988H56.5115" stroke="#181818" stroke-width="2.63" stroke-miterlimit="10" stroke-linecap="square"/>
<path d="M34.462 47.3711H77.0176" stroke="#ADACAC" stroke-width="2.63" stroke-miterlimit="10" stroke-linecap="square"/>
<path d="M34.462 47.3711H77.0176" stroke="url(#paint6_linear_2:134)" stroke-width="2.63" stroke-miterlimit="10" stroke-linecap="square"/>
<path d="M34.462 47.3711H77.0176" stroke="#181818" stroke-width="2.63" stroke-miterlimit="10" stroke-linecap="square"/>
<path d="M55.7389 61.4297H77.0167" stroke="#ADACAC" stroke-width="2.63" stroke-miterlimit="10" stroke-linecap="square"/>
<path d="M55.7389 61.4297H77.0167" stroke="url(#paint7_linear_2:134)" stroke-width="2.63" stroke-miterlimit="10" stroke-linecap="square"/>
<path d="M55.7389 61.4297H77.0167" stroke="#181818" stroke-width="2.63" stroke-miterlimit="10" stroke-linecap="square"/>
<path d="M34.462 61.4297H45.4868" stroke="#ADACAC" stroke-width="2.63" stroke-miterlimit="10" stroke-linecap="square"/>
<path d="M34.462 61.4297H45.4868" stroke="url(#paint8_linear_2:134)" stroke-width="2.63" stroke-miterlimit="10" stroke-linecap="square"/>
<path d="M34.462 61.4297H45.4868" stroke="#181818" stroke-width="2.63" stroke-miterlimit="10" stroke-linecap="square"/>
<path d="M34.462 75.5015H48.7115" stroke="#ADACAC" stroke-width="2.63" stroke-miterlimit="10" stroke-linecap="square"/>
<path d="M34.462 75.5015H48.7115" stroke="url(#paint9_linear_2:134)" stroke-width="2.63" stroke-miterlimit="10" stroke-linecap="square"/>
<path d="M34.462 75.5015H48.7115" stroke="#181818" stroke-width="2.63" stroke-miterlimit="10" stroke-linecap="square"/>
<path d="M34.462 89.5596H48.7115" stroke="#ADACAC" stroke-width="2.63" stroke-miterlimit="10" stroke-linecap="square"/>
<path d="M34.462 89.5596H48.7115" stroke="url(#paint10_linear_2:134)" stroke-width="2.63" stroke-miterlimit="10" stroke-linecap="square"/>
<path d="M34.462 89.5596H48.7115" stroke="#181818" stroke-width="2.63" stroke-miterlimit="10" stroke-linecap="square"/>
<path d="M59.9427 95.6323L58.1649 105.768L56.966 112.552L67.6876 108.909L78.4092 112.552L77.2103 105.768L76.659 102.64" stroke="#ADACAC" stroke-width="2.63" stroke-miterlimit="10" stroke-linecap="square"/>
<path d="M59.9427 95.6323L58.1649 105.768L56.966 112.552L67.6876 108.909L78.4092 112.552L77.2103 105.768L76.659 102.64" stroke="url(#paint11_linear_2:134)" stroke-width="2.63" stroke-miterlimit="10" stroke-linecap="square"/>
<path d="M59.9427 95.6323L58.1649 105.768L56.966 112.552L67.6876 108.909L78.4092 112.552L77.2103 105.768L76.659 102.64" stroke="#181818" stroke-width="2.63" stroke-miterlimit="10" stroke-linecap="square"/>
<path d="M73.6827 76.0039C71.5922 74.6557 69.1183 74.0506 66.6509 74.2838C64.1835 74.517 61.8628 75.5754 60.0547 77.292C58.2465 79.0087 57.0537 81.2861 56.6641 83.7653C56.2746 86.2445 56.7105 88.7845 57.9032 90.9851C59.0958 93.1856 60.9775 94.9215 63.2515 95.9193C65.5255 96.917 68.0626 97.1198 70.4629 96.4957C72.8633 95.8717 74.9903 94.4562 76.509 92.4724C78.0276 90.4886 78.8514 88.0493 78.8505 85.5389" stroke="#ADACAC" stroke-width="2.63" stroke-miterlimit="10" stroke-linecap="square"/>
<path d="M73.6827 76.0039C71.5922 74.6557 69.1183 74.0506 66.6509 74.2838C64.1835 74.517 61.8628 75.5754 60.0547 77.292C58.2465 79.0087 57.0537 81.2861 56.6641 83.7653C56.2746 86.2445 56.7105 88.7845 57.9032 90.9851C59.0958 93.1856 60.9775 94.9215 63.2515 95.9193C65.5255 96.917 68.0626 97.1198 70.4629 96.4957C72.8633 95.8717 74.9903 94.4562 76.509 92.4724C78.0276 90.4886 78.8514 88.0493 78.8505 85.5389" stroke="url(#paint12_linear_2:134)" stroke-width="2.63" stroke-miterlimit="10" stroke-linecap="square"/>
<path d="M73.6827 76.0039C71.5922 74.6557 69.1183 74.0506 66.6509 74.2838C64.1835 74.517 61.8628 75.5754 60.0547 77.292C58.2465 79.0087 57.0537 81.2861 56.6641 83.7653C56.2746 86.2445 56.7105 88.7845 57.9032 90.9851C59.0958 93.1856 60.9775 94.9215 63.2515 95.9193C65.5255 96.917 68.0626 97.1198 70.4629 96.4957C72.8633 95.8717 74.9903 94.4562 76.509 92.4724C78.0276 90.4886 78.8514 88.0493 78.8505 85.5389" stroke="#181818" stroke-width="2.63" stroke-miterlimit="10" stroke-linecap="square"/>
<path d="M67.6746 89.6575C69.9198 89.6575 71.74 87.8137 71.74 85.5392C71.74 83.2647 69.9198 81.4209 67.6746 81.4209C65.4293 81.4209 63.6092 83.2647 63.6092 85.5392C63.6092 87.8137 65.4293 89.6575 67.6746 89.6575Z" stroke="#ADACAC" stroke-width="2.63" stroke-miterlimit="10" stroke-linecap="square"/>
<path d="M67.6746 89.6575C69.9198 89.6575 71.74 87.8137 71.74 85.5392C71.74 83.2647 69.9198 81.4209 67.6746 81.4209C65.4293 81.4209 63.6092 83.2647 63.6092 85.5392C63.6092 87.8137 65.4293 89.6575 67.6746 89.6575Z" stroke="url(#paint13_linear_2:134)" stroke-width="2.63" stroke-miterlimit="10" stroke-linecap="square"/>
<path d="M67.6746 89.6575C69.9198 89.6575 71.74 87.8137 71.74 85.5392C71.74 83.2647 69.9198 81.4209 67.6746 81.4209C65.4293 81.4209 63.6092 83.2647 63.6092 85.5392C63.6092 87.8137 65.4293 89.6575 67.6746 89.6575Z" stroke="#181818" stroke-width="2.63" stroke-miterlimit="10" stroke-linecap="square"/>
<defs>
<linearGradient id="paint0_linear_2:134" x1="85.8158" y1="23.834" x2="85.8158" y2="105.768" gradientUnits="userSpaceOnUse">
<stop stop-color="#8C00FF"/>
<stop offset="1" stop-color="#7100FF"/>
</linearGradient>
<linearGradient id="paint1_linear_2:134" x1="72.0972" y1="19.2412" x2="72.0972" y2="20.2412" gradientUnits="userSpaceOnUse">
<stop stop-color="#8C00FF"/>
<stop offset="1" stop-color="#7100FF"/>
</linearGradient>
<linearGradient id="paint2_linear_2:134" x1="45.4868" y1="19.2412" x2="45.4868" y2="20.2412" gradientUnits="userSpaceOnUse">
<stop stop-color="#8C00FF"/>
<stop offset="1" stop-color="#7100FF"/>
</linearGradient>
<linearGradient id="paint3_linear_2:134" x1="55.7398" y1="19.2412" x2="55.7398" y2="20.2412" gradientUnits="userSpaceOnUse">
<stop stop-color="#8C00FF"/>
<stop offset="1" stop-color="#7100FF"/>
</linearGradient>
<linearGradient id="paint4_linear_2:134" x1="72.0972" y1="33.2988" x2="72.0972" y2="34.2988" gradientUnits="userSpaceOnUse">
<stop stop-color="#8C00FF"/>
<stop offset="1" stop-color="#7100FF"/>
</linearGradient>
<linearGradient id="paint5_linear_2:134" x1="45.4868" y1="33.2988" x2="45.4868" y2="34.2988" gradientUnits="userSpaceOnUse">
<stop stop-color="#8C00FF"/>
<stop offset="1" stop-color="#7100FF"/>
</linearGradient>
<linearGradient id="paint6_linear_2:134" x1="55.7398" y1="47.3711" x2="55.7398" y2="48.3711" gradientUnits="userSpaceOnUse">
<stop stop-color="#8C00FF"/>
<stop offset="1" stop-color="#7100FF"/>
</linearGradient>
<linearGradient id="paint7_linear_2:134" x1="66.3778" y1="61.4297" x2="66.3778" y2="62.4297" gradientUnits="userSpaceOnUse">
<stop stop-color="#8C00FF"/>
<stop offset="1" stop-color="#7100FF"/>
</linearGradient>
<linearGradient id="paint8_linear_2:134" x1="39.9744" y1="61.4297" x2="39.9744" y2="62.4297" gradientUnits="userSpaceOnUse">
<stop stop-color="#8C00FF"/>
<stop offset="1" stop-color="#7100FF"/>
</linearGradient>
<linearGradient id="paint9_linear_2:134" x1="41.5867" y1="75.5015" x2="41.5867" y2="76.5015" gradientUnits="userSpaceOnUse">
<stop stop-color="#8C00FF"/>
<stop offset="1" stop-color="#7100FF"/>
</linearGradient>
<linearGradient id="paint10_linear_2:134" x1="41.5867" y1="89.5596" x2="41.5867" y2="90.5596" gradientUnits="userSpaceOnUse">
<stop stop-color="#8C00FF"/>
<stop offset="1" stop-color="#7100FF"/>
</linearGradient>
<linearGradient id="paint11_linear_2:134" x1="67.6876" y1="95.6323" x2="67.6876" y2="112.552" gradientUnits="userSpaceOnUse">
<stop stop-color="#8C00FF"/>
<stop offset="1" stop-color="#7100FF"/>
</linearGradient>
<linearGradient id="paint12_linear_2:134" x1="67.6879" y1="74.2349" x2="67.6879" y2="96.8507" gradientUnits="userSpaceOnUse">
<stop stop-color="#8C00FF"/>
<stop offset="1" stop-color="#7100FF"/>
</linearGradient>
<linearGradient id="paint13_linear_2:134" x1="67.6746" y1="81.4209" x2="67.6746" y2="89.6575" gradientUnits="userSpaceOnUse">
<stop stop-color="#8C00FF"/>
<stop offset="1" stop-color="#7100FF"/>
</linearGradient>
</defs>
</svg>
