<svg width="114" height="128" viewBox="0 0 114 128" fill="none" xmlns="http://www.w3.org/2000/svg">
<rect x="0.0502525" y="72" width="81" height="79" rx="10.5" transform="rotate(-45 0.0502525 72)" stroke="#F8B043" stroke-width="7"/>
<path d="M59.5789 14.8604L87.1754 42.4569L66.0326 63.5998L38.3799 35.9471" stroke="#ADACAC" stroke-width="2.63" stroke-miterlimit="10" stroke-linecap="square"/>
<path d="M59.5789 14.8604L87.1754 42.4569L66.0326 63.5998L38.3799 35.9471" stroke="url(#paint0_linear_2:158)" stroke-width="2.63" stroke-miterlimit="10" stroke-linecap="square"/>
<path d="M59.5789 14.8604L87.1754 42.4569L66.0326 63.5998L38.3799 35.9471" stroke="#181818" stroke-width="2.63" stroke-miterlimit="10" stroke-linecap="square"/>
<path d="M53.2369 56.4028L56.0428 53.5968L47.2181 44.7861L32.7675 59.2508" stroke="#ADACAC" stroke-width="2.63" stroke-miterlimit="10" stroke-linecap="square"/>
<path d="M53.2369 56.4028L56.0428 53.5968L47.2181 44.7861L32.7675 59.2508" stroke="url(#paint1_linear_2:158)" stroke-width="2.63" stroke-miterlimit="10" stroke-linecap="square"/>
<path d="M53.2369 56.4028L56.0428 53.5968L47.2181 44.7861L32.7675 59.2508" stroke="#181818" stroke-width="2.63" stroke-miterlimit="10" stroke-linecap="square"/>
<path d="M53.2086 56.4312L41.0448 68.595" stroke="#ADACAC" stroke-width="2.63" stroke-miterlimit="10" stroke-linecap="square"/>
<path d="M53.2086 56.4312L41.0448 68.595" stroke="url(#paint2_linear_2:158)" stroke-width="2.63" stroke-miterlimit="10" stroke-linecap="square"/>
<path d="M53.2086 56.4312L41.0448 68.595" stroke="#181818" stroke-width="2.63" stroke-miterlimit="10" stroke-linecap="square"/>
<path d="M24.8547 63.4035C25.6816 62.5704 26.6651 61.9092 27.7487 61.458C28.8322 61.0067 29.9944 60.7744 31.1681 60.7744C32.3419 60.7744 33.504 61.0067 34.5876 61.458C35.6712 61.9092 36.6547 62.5704 37.4815 63.4035V63.4035C38.3113 64.2322 38.9695 65.2164 39.4186 66.2997C39.8678 67.383 40.0989 68.5442 40.0989 69.7169C40.0989 70.8896 39.8678 72.0508 39.4186 73.1341C38.9695 74.2174 38.3113 75.2016 37.4815 76.0303L14.627 98.7726L2.00024 86.1458L18.7237 69.5345" stroke="#ADACAC" stroke-width="2.63" stroke-miterlimit="10" stroke-linecap="square"/>
<path d="M24.8547 63.4035C25.6816 62.5704 26.6651 61.9092 27.7487 61.458C28.8322 61.0067 29.9944 60.7744 31.1681 60.7744C32.3419 60.7744 33.504 61.0067 34.5876 61.458C35.6712 61.9092 36.6547 62.5704 37.4815 63.4035V63.4035C38.3113 64.2322 38.9695 65.2164 39.4186 66.2997C39.8678 67.383 40.0989 68.5442 40.0989 69.7169C40.0989 70.8896 39.8678 72.0508 39.4186 73.1341C38.9695 74.2174 38.3113 75.2016 37.4815 76.0303L14.627 98.7726L2.00024 86.1458L18.7237 69.5345" stroke="url(#paint3_linear_2:158)" stroke-width="2.63" stroke-miterlimit="10" stroke-linecap="square"/>
<path d="M24.8547 63.4035C25.6816 62.5704 26.6651 61.9092 27.7487 61.458C28.8322 61.0067 29.9944 60.7744 31.1681 60.7744C32.3419 60.7744 33.504 61.0067 34.5876 61.458C35.6712 61.9092 36.6547 62.5704 37.4815 63.4035V63.4035C38.3113 64.2322 38.9695 65.2164 39.4186 66.2997C39.8678 67.383 40.0989 68.5442 40.0989 69.7169C40.0989 70.8896 39.8678 72.0508 39.4186 73.1341C38.9695 74.2174 38.3113 75.2016 37.4815 76.0303L14.627 98.7726L2.00024 86.1458L18.7237 69.5345" stroke="#181818" stroke-width="2.63" stroke-miterlimit="10" stroke-linecap="square"/>
<path d="M56.8006 16.4882L58.2036 15.0852C58.918 14.3758 59.4849 13.5321 59.8718 12.6026C60.2586 11.6732 60.4578 10.6764 60.4578 9.66969C60.4578 8.66295 60.2586 7.66616 59.8718 6.73673C59.4849 5.8073 58.918 4.96359 58.2036 4.2542V4.2542C57.4942 3.53986 56.6505 2.97293 55.7211 2.58605C54.7917 2.19917 53.7949 2 52.7881 2C51.7814 2 50.7846 2.19917 49.8552 2.58605C48.9257 2.97293 48.082 3.53986 47.3726 4.2542L41.3258 10.301L27.8151 23.8117C26.3793 25.2482 25.5726 27.1961 25.5726 29.2272C25.5726 31.2583 26.3793 33.2062 27.8151 34.6427V34.6427C29.2516 36.0786 31.1996 36.8852 33.2306 36.8852C35.2617 36.8852 37.2096 36.0786 38.6461 34.6427L51.1046 22.1842L71.6161 42.6958" stroke="#ADACAC" stroke-width="2.63" stroke-miterlimit="10" stroke-linecap="square"/>
<path d="M56.8006 16.4882L58.2036 15.0852C58.918 14.3758 59.4849 13.5321 59.8718 12.6026C60.2586 11.6732 60.4578 10.6764 60.4578 9.66969C60.4578 8.66295 60.2586 7.66616 59.8718 6.73673C59.4849 5.8073 58.918 4.96359 58.2036 4.2542V4.2542C57.4942 3.53986 56.6505 2.97293 55.7211 2.58605C54.7917 2.19917 53.7949 2 52.7881 2C51.7814 2 50.7846 2.19917 49.8552 2.58605C48.9257 2.97293 48.082 3.53986 47.3726 4.2542L41.3258 10.301L27.8151 23.8117C26.3793 25.2482 25.5726 27.1961 25.5726 29.2272C25.5726 31.2583 26.3793 33.2062 27.8151 34.6427V34.6427C29.2516 36.0786 31.1996 36.8852 33.2306 36.8852C35.2617 36.8852 37.2096 36.0786 38.6461 34.6427L51.1046 22.1842L71.6161 42.6958" stroke="url(#paint4_linear_2:158)" stroke-width="2.63" stroke-miterlimit="10" stroke-linecap="square"/>
<path d="M56.8006 16.4882L58.2036 15.0852C58.918 14.3758 59.4849 13.5321 59.8718 12.6026C60.2586 11.6732 60.4578 10.6764 60.4578 9.66969C60.4578 8.66295 60.2586 7.66616 59.8718 6.73673C59.4849 5.8073 58.918 4.96359 58.2036 4.2542V4.2542C57.4942 3.53986 56.6505 2.97293 55.7211 2.58605C54.7917 2.19917 53.7949 2 52.7881 2C51.7814 2 50.7846 2.19917 49.8552 2.58605C48.9257 2.97293 48.082 3.53986 47.3726 4.2542L41.3258 10.301L27.8151 23.8117C26.3793 25.2482 25.5726 27.1961 25.5726 29.2272C25.5726 31.2583 26.3793 33.2062 27.8151 34.6427V34.6427C29.2516 36.0786 31.1996 36.8852 33.2306 36.8852C35.2617 36.8852 37.2096 36.0786 38.6461 34.6427L51.1046 22.1842L71.6161 42.6958" stroke="#181818" stroke-width="2.63" stroke-miterlimit="10" stroke-linecap="square"/>
<path d="M97.2251 54.0731C100.217 51.0816 100.217 46.2314 97.2251 43.2399C94.2336 40.2484 89.3834 40.2484 86.3919 43.2399L66.8188 62.8132C63.8272 65.8047 63.8272 70.6549 66.8187 73.6464C69.8103 76.638 74.6604 76.638 77.652 73.6464L97.2251 54.0731Z" stroke="#ADACAC" stroke-width="2.63" stroke-miterlimit="10" stroke-linecap="square"/>
<path d="M97.2251 54.0731C100.217 51.0816 100.217 46.2314 97.2251 43.2399C94.2336 40.2484 89.3834 40.2484 86.3919 43.2399L66.8188 62.8132C63.8272 65.8047 63.8272 70.6549 66.8187 73.6464C69.8103 76.638 74.6604 76.638 77.652 73.6464L97.2251 54.0731Z" stroke="url(#paint5_linear_2:158)" stroke-width="2.63" stroke-miterlimit="10" stroke-linecap="square"/>
<path d="M97.2251 54.0731C100.217 51.0816 100.217 46.2314 97.2251 43.2399C94.2336 40.2484 89.3834 40.2484 86.3919 43.2399L66.8188 62.8132C63.8272 65.8047 63.8272 70.6549 66.8187 73.6464C69.8103 76.638 74.6604 76.638 77.652 73.6464L97.2251 54.0731Z" stroke="#181818" stroke-width="2.63" stroke-miterlimit="10" stroke-linecap="square"/>
<path d="M67.7863 92.6138C68.2229 91.2567 69.0789 90.0731 70.2311 89.2335C71.3834 88.394 72.7723 87.9417 74.1979 87.9419H95.3408C96.2245 87.9401 97.0999 88.1125 97.9168 88.4494C98.7338 88.7863 99.4763 89.281 100.102 89.9053C100.727 90.5295 101.224 91.2709 101.562 92.0872C101.901 92.9035 102.075 93.7785 102.075 94.6622V99.5866H67.4636" stroke="#ADACAC" stroke-width="2.63" stroke-miterlimit="10" stroke-linecap="square"/>
<path d="M67.7863 92.6138C68.2229 91.2567 69.0789 90.0731 70.2311 89.2335C71.3834 88.394 72.7723 87.9417 74.1979 87.9419H95.3408C96.2245 87.9401 97.0999 88.1125 97.9168 88.4494C98.7338 88.7863 99.4763 89.281 100.102 89.9053C100.727 90.5295 101.224 91.2709 101.562 92.0872C101.901 92.9035 102.075 93.7785 102.075 94.6622V99.5866H67.4636" stroke="url(#paint6_linear_2:158)" stroke-width="2.63" stroke-miterlimit="10" stroke-linecap="square"/>
<path d="M67.7863 92.6138C68.2229 91.2567 69.0789 90.0731 70.2311 89.2335C71.3834 88.394 72.7723 87.9417 74.1979 87.9419H95.3408C96.2245 87.9401 97.0999 88.1125 97.9168 88.4494C98.7338 88.7863 99.4763 89.281 100.102 89.9053C100.727 90.5295 101.224 91.2709 101.562 92.0872C101.901 92.9035 102.075 93.7785 102.075 94.6622V99.5866H67.4636" stroke="#181818" stroke-width="2.63" stroke-miterlimit="10" stroke-linecap="square"/>
<path d="M62.8332 99.5864H106.718C108.073 99.5864 109.372 100.124 110.329 101.082C111.287 102.04 111.825 103.339 111.825 104.693V115.608H57.7263V104.693C57.7263 103.339 58.2644 102.04 59.2221 101.082C60.1798 100.124 61.4787 99.5864 62.8332 99.5864V99.5864Z" stroke="#ADACAC" stroke-width="2.63" stroke-miterlimit="10" stroke-linecap="square"/>
<path d="M62.8332 99.5864H106.718C108.073 99.5864 109.372 100.124 110.329 101.082C111.287 102.04 111.825 103.339 111.825 104.693V115.608H57.7263V104.693C57.7263 103.339 58.2644 102.04 59.2221 101.082C60.1798 100.124 61.4787 99.5864 62.8332 99.5864V99.5864Z" stroke="url(#paint7_linear_2:158)" stroke-width="2.63" stroke-miterlimit="10" stroke-linecap="square"/>
<path d="M62.8332 99.5864H106.718C108.073 99.5864 109.372 100.124 110.329 101.082C111.287 102.04 111.825 103.339 111.825 104.693V115.608H57.7263V104.693C57.7263 103.339 58.2644 102.04 59.2221 101.082C60.1798 100.124 61.4787 99.5864 62.8332 99.5864V99.5864Z" stroke="#181818" stroke-width="2.63" stroke-miterlimit="10" stroke-linecap="square"/>
<defs>
<linearGradient id="paint0_linear_2:158" x1="62.7777" y1="14.8604" x2="62.7777" y2="63.5998" gradientUnits="userSpaceOnUse">
<stop stop-color="#8C00FF"/>
<stop offset="1" stop-color="#7100FF"/>
</linearGradient>
<linearGradient id="paint1_linear_2:158" x1="44.4052" y1="44.7861" x2="44.4052" y2="59.2508" gradientUnits="userSpaceOnUse">
<stop stop-color="#8C00FF"/>
<stop offset="1" stop-color="#7100FF"/>
</linearGradient>
<linearGradient id="paint2_linear_2:158" x1="47.1267" y1="56.4312" x2="47.1267" y2="68.595" gradientUnits="userSpaceOnUse">
<stop stop-color="#8C00FF"/>
<stop offset="1" stop-color="#7100FF"/>
</linearGradient>
<linearGradient id="paint3_linear_2:158" x1="21.0496" y1="60.7744" x2="21.0496" y2="98.7726" gradientUnits="userSpaceOnUse">
<stop stop-color="#8C00FF"/>
<stop offset="1" stop-color="#7100FF"/>
</linearGradient>
<linearGradient id="paint4_linear_2:158" x1="48.5944" y1="2" x2="48.5944" y2="42.6958" gradientUnits="userSpaceOnUse">
<stop stop-color="#8C00FF"/>
<stop offset="1" stop-color="#7100FF"/>
</linearGradient>
<linearGradient id="paint5_linear_2:158" x1="97.2251" y1="43.2399" x2="66.8186" y2="73.6463" gradientUnits="userSpaceOnUse">
<stop stop-color="#8C00FF"/>
<stop offset="1" stop-color="#7100FF"/>
</linearGradient>
<linearGradient id="paint6_linear_2:158" x1="84.7693" y1="87.9419" x2="84.7693" y2="99.5866" gradientUnits="userSpaceOnUse">
<stop stop-color="#8C00FF"/>
<stop offset="1" stop-color="#7100FF"/>
</linearGradient>
<linearGradient id="paint7_linear_2:158" x1="84.7757" y1="99.5864" x2="84.7757" y2="115.608" gradientUnits="userSpaceOnUse">
<stop stop-color="#8C00FF"/>
<stop offset="1" stop-color="#7100FF"/>
</linearGradient>
</defs>
</svg>
